<svg version="1.1" xmlns="http://www.w3.org/2000/svg" xmlns:xlink="http://www.w3.org/1999/xlink" width="500" height="500"><defs><clipPath id="clip-1"><rect x="23.95109" y="74.75543" transform="scale(2.08759,2.08759)" width="90" height="90"></rect></clipPath></defs><g data-paper-data="{&quot;description&quot;:&quot;Logo for Ai Compass\n===================\n\nThis logo was generated by MarkMaker at http://emblemmatic.org/markmaker/ and may be composed of elements designed by others.\n\nThe font is Rosario Bold Italic designed by Omnibus-Type and released under the OFL license via Google Fonts: https://www.google.com/fonts/specimen/Rosario. The font includes this copyright statement: Copyright (c) 2011 by Omnibus-Type (www.omnibus-type.com) with Reserved Font Name 'Rosario'. Copyright (c) 2013 by Adobe Systems Incorporated. All Rights Reserved.\n\nThe symbol is 'shopping' designed by New Haircut and released into the public domain at the Noun Project: https://thenounproject.com/term/shopping/97570.\n\nMarkMaker uses semantic data from the Princeton University WordNet database http://wordnet.princeton.edu and font descriptions from Google Fonts https://www.google.com/fonts.&quot;}" fill="none" fill-rule="nonzero" stroke="#000000" stroke-width="1.07165" stroke-linecap="butt" stroke-linejoin="miter" stroke-miterlimit="10" stroke-dasharray="" stroke-dashoffset="0" font-family="none" font-weight="none" font-size="none" text-anchor="none" style="mix-blend-mode: normal"><g data-paper-data="{&quot;elementType&quot;:&quot;logo&quot;}"><g data-paper-data="{&quot;elementType&quot;:&quot;text&quot;}"><g data-paper-data="{&quot;baseline&quot;:75.7,&quot;elementType&quot;:&quot;row&quot;}"><g data-paper-data="{&quot;baselineProportion&quot;:1,&quot;fontSize&quot;:100,&quot;baseline&quot;:75.7,&quot;elementType&quot;:&quot;word&quot;}"><path d="M285.55252,260.38971h-5.46827l-1.60142,-8.20241h-7.65558l-3.86685,8.20241h-4.84333l13.43632,-28.59124h4.21838l5.78074,28.59124M277.66259,248.35952c-0.1302,-0.65098 -0.57287,-3.90591 -1.32801,-9.76477c-0.20832,0.52079 -0.73561,1.95946 -1.58189,4.31603c-0.84628,2.35656 -1.55585,4.17281 -2.12872,5.44874z" data-paper-data="{&quot;elementType&quot;:&quot;letter&quot;,&quot;baseline&quot;:73.2,&quot;baselineProportion&quot;:1,&quot;fontSize&quot;:100}"></path><path d="M295.20011,240.97735l-2.30449,17.26411l0.11718,2.14825h-4.84333l2.30449,-17.30317l-0.11718,-2.10919zM296.80154,233.36083c0,0.88534 -0.31898,1.67954 -0.95695,2.3826c-0.63796,0.70306 -1.39962,1.0546 -2.28496,1.0546c-0.70306,0 -1.28895,-0.25388 -1.75766,-0.76165c-0.46871,-0.50777 -0.70306,-1.11318 -0.70306,-1.81625c0,-0.88534 0.32549,-1.67303 0.97648,-2.36307c0.65098,-0.69004 1.41915,-1.03507 2.30449,-1.03507c0.70306,0 1.28244,0.24737 1.73813,0.74212c0.45569,0.49475 0.68353,1.09365 0.68353,1.79672" data-paper-data="{&quot;elementType&quot;:&quot;letter&quot;,&quot;baseline&quot;:75.7,&quot;baselineProportion&quot;:1,&quot;fontSize&quot;:100}"></path></g><g data-paper-data="{&quot;baselineProportion&quot;:0.7682801235839342,&quot;fontSize&quot;:100,&quot;baseline&quot;:74.60000000000001,&quot;elementType&quot;:&quot;word&quot;}"><path d="M332.54935,234.02484l-3.16379,3.59344c-0.57287,-0.80722 -1.3866,-1.43868 -2.44119,-1.89437c-1.0546,-0.45569 -2.10268,-0.68353 -3.14426,-0.68353c-1.56236,0 -2.96198,0.40361 -4.19885,1.21083c-1.23687,0.80722 -2.21335,1.85531 -2.92943,3.14426c-0.71608,1.28895 -1.2564,2.66253 -1.62095,4.12073c-0.36455,1.45821 -0.54683,2.91641 -0.54683,4.37462c0,1.48424 0.18228,2.89037 0.54683,4.21838c0.36455,1.32801 1.0546,2.50629 2.07013,3.53485c1.01554,1.02856 2.27845,1.54283 3.78873,1.54283c2.29147,0 4.53085,-0.97648 6.71816,-2.92943l1.83578,3.71061c-3.12473,1.92691 -6.23643,2.89037 -9.33512,2.89037c-3.61947,0 -6.39267,-1.06761 -8.31958,-3.20284c-1.92691,-2.13523 -2.89037,-5.03862 -2.89037,-8.71017c0,-2.26543 0.34502,-4.44623 1.03507,-6.5424c0.69004,-2.09617 1.66001,-3.97752 2.9099,-5.64404c1.24989,-1.66652 2.85131,-3.00104 4.80427,-4.00356c1.95295,-1.00252 4.1012,-1.50377 6.44475,-1.50377c1.51028,0 3.07265,0.23435 4.68709,0.70306c1.61444,0.46871 2.86433,1.15875 3.74967,2.07013z" data-paper-data="{&quot;elementType&quot;:&quot;letter&quot;,&quot;baseline&quot;:74.60000000000001,&quot;baselineProportion&quot;:0.9841688654353562,&quot;fontSize&quot;:100}"></path><path d="M349.22758,248.86729c0,2.03107 -0.41663,3.95148 -1.24989,5.76121c-0.83326,1.80974 -2.06362,3.30049 -3.69108,4.47226c-1.62746,1.17177 -3.46975,1.75766 -5.52686,1.75766c-2.42166,0 -4.31603,-0.78118 -5.6831,-2.34354c-1.36707,-1.56236 -2.0506,-3.58042 -2.0506,-6.05416c0,-3.15077 0.97648,-5.93698 2.92943,-8.35864c1.95295,-2.42166 4.46575,-3.63249 7.5384,-3.63249c2.42166,0 4.31603,0.78118 5.6831,2.34354c1.36707,1.56236 2.0506,3.58042 2.0506,6.05416M344.34519,248.4767c0,-3.20284 -1.09365,-4.80427 -3.28096,-4.80427c-0.93742,0 -1.76417,0.31898 -2.48025,0.95695c-0.71608,0.63796 -1.2564,1.4517 -1.62095,2.44119c-0.36455,0.9895 -0.63146,1.95946 -0.80071,2.9099c-0.16926,0.95044 -0.25388,1.85531 -0.25388,2.71461c0,3.35908 1.09365,5.03862 3.28096,5.03862c0.96346,0 1.80974,-0.32549 2.53884,-0.97648c0.7291,-0.65098 1.26942,-1.48424 1.62095,-2.49978c0.35153,-1.01554 0.60542,-2.00503 0.76165,-2.96849c0.15624,-0.96346 0.23435,-1.90088 0.23435,-2.81225z" data-paper-data="{&quot;elementType&quot;:&quot;letter&quot;,&quot;baseline&quot;:51,&quot;baselineProportion&quot;:0.9770114942528735,&quot;fontSize&quot;:100}"></path><path d="M378.67812,245.19573c0,0.46871 -0.05208,1.11969 -0.15624,1.95295l-1.48424,11.1709l0.11718,2.07013h-4.84333l1.7186,-12.96761c0.05208,-0.46871 0.07812,-0.83326 0.07812,-1.09365c0,-0.7291 -0.16275,-1.26291 -0.48824,-1.60142c-0.32549,-0.33851 -0.85279,-0.50777 -1.58189,-0.50777c-1.19781,0 -2.53884,0.67702 -4.02309,2.03107l-1.87484,14.13939h-4.49179l1.75766,-13.08479c0.05208,-0.41663 0.07812,-0.7291 0.07812,-0.93742c0,-1.43217 -0.664,-2.14825 -1.99201,-2.14825c-0.62495,0 -1.31499,0.20832 -2.07013,0.62495c-0.75514,0.41663 -1.40613,0.89836 -1.95295,1.44519l-1.91389,14.10033h-4.45273l1.87484,-13.90503c0.07812,-0.75514 0.11718,-1.51028 0.11718,-2.26543c0,-1.48424 -0.18228,-2.5128 -0.54683,-3.08567l4.72615,-0.58589c0.20832,0.7291 0.31247,1.56236 0.31247,2.49978c2.08315,-1.7186 4.08818,-2.5779 6.0151,-2.5779c2.29147,0 3.69759,0.95044 4.21838,2.85131c2.03107,-1.90088 4.1663,-2.85131 6.40569,-2.85131c2.96849,0 4.45273,1.57538 4.45273,4.72615z" data-paper-data="{&quot;elementType&quot;:&quot;letter&quot;,&quot;baseline&quot;:51,&quot;baselineProportion&quot;:1,&quot;fontSize&quot;:100}"></path><path d="M399.37944,248.63293c0,3.20284 -0.91138,6.03463 -2.73414,8.49535c-1.82276,2.46072 -4.28348,3.69108 -7.38217,3.69108c-1.77068,0 -3.08567,-0.41663 -3.94497,-1.24989l-0.97648,7.46028l0.1953,2.14825h-4.9605l3.04661,-22.69332c0.10416,-0.65098 0.15624,-1.39311 0.15624,-2.22637c0,-1.38009 -0.16926,-2.40864 -0.50777,-3.08567l4.56991,-0.58589c0.20832,0.7291 0.33851,1.51028 0.39059,2.34354c0.59891,-0.7291 1.41264,-1.3215 2.44119,-1.77719c1.02856,-0.45569 2.03758,-0.68353 3.02708,-0.68353c2.21335,0 3.87987,0.78769 4.99956,2.36307c1.11969,1.57538 1.67954,3.50881 1.67954,5.80027M394.61423,248.78917c0,-3.35908 -0.95044,-5.03862 -2.85131,-5.03862c-0.59891,0 -1.14573,0.14322 -1.64048,0.42965c-0.49475,0.28643 -0.91789,0.63146 -1.26942,1.03507c-0.35153,0.40361 -0.68353,0.96997 -0.99601,1.69907c-0.31247,0.7291 -0.55985,1.3866 -0.74212,1.97248c-0.18228,0.58589 -0.37106,1.37358 -0.56636,2.36307c-0.1953,0.9895 -0.33851,1.7837 -0.42965,2.3826c-0.09114,0.59891 -0.20181,1.40613 -0.332,2.42166c1.04158,1.04158 2.16127,1.56236 3.35908,1.56236c0.78118,0 1.49726,-0.22133 2.14825,-0.664c0.65098,-0.44267 1.17828,-0.9895 1.58189,-1.64048c0.40361,-0.65098 0.74212,-1.39311 1.01554,-2.22637c0.27341,-0.83326 0.4622,-1.60793 0.56636,-2.32402c0.10416,-0.71608 0.15624,-1.37358 0.15624,-1.97248z" data-paper-data="{&quot;elementType&quot;:&quot;letter&quot;,&quot;baseline&quot;:51,&quot;baselineProportion&quot;:0.6938775510204082,&quot;fontSize&quot;:100}"></path><path d="M420.90099,259.53041c-1.22385,0.80722 -2.60394,1.21083 -4.14026,1.21083c-0.78118,0 -1.47123,-0.25388 -2.07013,-0.76165c-0.59891,-0.50777 -0.97648,-1.13922 -1.13271,-1.89437h-0.15624c-1.38009,1.8488 -3.28096,2.77319 -5.70263,2.77319c-2.21335,0 -3.87987,-0.78769 -4.99956,-2.36307c-1.11969,-1.57538 -1.67954,-3.50881 -1.67954,-5.80027c0,-2.03107 0.39059,-3.95799 1.17177,-5.78074c0.78118,-1.82276 1.99201,-3.34606 3.63249,-4.56991c1.64048,-1.22385 3.54136,-1.83578 5.70263,-1.83578c1.90088,0 3.46324,0.65098 4.68709,1.95295l0.89836,-1.60142h2.46072l-2.10919,14.45186c-0.05208,0.36455 -0.07812,0.63796 -0.07812,0.82024c0,0.93742 0.32549,1.40613 0.97648,1.40613c0.44267,0 1.06761,-0.15624 1.87484,-0.46871l0.664,2.46072M414.57342,245.27385c-1.04158,-1.04158 -2.16127,-1.56236 -3.35908,-1.56236c-0.9895,0 -1.86182,0.332 -2.61696,0.99601c-0.75514,0.664 -1.32801,1.49075 -1.7186,2.48025c-0.39059,0.9895 -0.67702,1.95946 -0.8593,2.9099c-0.18228,0.95044 -0.27341,1.81625 -0.27341,2.59743c0,3.28096 0.95044,4.92144 2.85131,4.92144c0.93742,0 1.75766,-0.36455 2.46072,-1.09365c0.70306,-0.7291 1.28244,-1.76417 1.73813,-3.1052c0.45569,-1.34103 0.80722,-2.62347 1.0546,-3.84732c0.24737,-1.22385 0.48824,-2.65602 0.72259,-4.2965z" data-paper-data="{&quot;elementType&quot;:&quot;letter&quot;,&quot;baseline&quot;:50.900000000000006,&quot;baselineProportion&quot;:0.9769673704414586,&quot;fontSize&quot;:100}"></path><path d="M435.50908,241.68042l-2.03107,3.28096c-0.83326,-0.80722 -1.99201,-1.21083 -3.47626,-1.21083c-0.78118,0 -1.44519,0.18879 -1.99201,0.56636c-0.54683,0.37757 -0.82024,0.93091 -0.82024,1.66001c0,0.54683 0.24086,1.02205 0.72259,1.42566c0.48173,0.40361 1.06761,0.75514 1.75766,1.0546c0.69004,0.29945 1.38009,0.63796 2.07013,1.01554c0.69004,0.37757 1.27593,0.91789 1.75766,1.62095c0.48173,0.70306 0.72259,1.56236 0.72259,2.5779c0,2.29147 -0.78769,4.06214 -2.36307,5.31203c-1.57538,1.24989 -3.50881,1.87484 -5.80027,1.87484c-2.18731,0 -4.1663,-0.57287 -5.93698,-1.7186l2.03107,-3.20284c1.69256,1.11969 3.02057,1.67954 3.98403,1.67954c0.8593,0 1.59491,-0.27341 2.20684,-0.82024c0.61193,-0.54683 0.91789,-1.26291 0.91789,-2.14825c0,-0.70306 -0.37106,-1.31499 -1.11318,-1.83578c-0.74212,-0.52079 -1.54934,-0.93742 -2.42166,-1.24989c-0.87232,-0.31247 -1.67954,-0.85279 -2.42166,-1.62095c-0.74212,-0.76816 -1.11318,-1.73813 -1.11318,-2.9099c0,-2.16127 0.77467,-3.79524 2.32402,-4.90191c1.54934,-1.10667 3.44371,-1.66001 5.6831,-1.66001c2.03107,0 3.80175,0.40361 5.31203,1.21083z" data-paper-data="{&quot;elementType&quot;:&quot;letter&quot;,&quot;baseline&quot;:51,&quot;baselineProportion&quot;:0.9770114942528735,&quot;fontSize&quot;:100}"></path><path d="M450,241.68042l-2.03107,3.28096c-0.83326,-0.80722 -1.99201,-1.21083 -3.47626,-1.21083c-0.78118,0 -1.44519,0.18879 -1.99201,0.56636c-0.54683,0.37757 -0.82024,0.93091 -0.82024,1.66001c0,0.54683 0.24086,1.02205 0.72259,1.42566c0.48173,0.40361 1.06761,0.75514 1.75766,1.0546c0.69004,0.29945 1.38009,0.63796 2.07013,1.01554c0.69004,0.37757 1.27593,0.91789 1.75766,1.62095c0.48173,0.70306 0.72259,1.56236 0.72259,2.5779c0,2.29147 -0.78769,4.06214 -2.36307,5.31203c-1.57538,1.24989 -3.50881,1.87484 -5.80027,1.87484c-2.18731,0 -4.1663,-0.57287 -5.93698,-1.7186l2.03107,-3.20284c1.69256,1.11969 3.02057,1.67954 3.98403,1.67954c0.8593,0 1.59491,-0.27341 2.20684,-0.82024c0.61193,-0.54683 0.91789,-1.26291 0.91789,-2.14825c0,-0.70306 -0.37106,-1.31499 -1.11318,-1.83578c-0.74212,-0.52079 -1.54934,-0.93742 -2.42166,-1.24989c-0.87232,-0.31247 -1.67954,-0.85279 -2.42166,-1.62095c-0.74212,-0.76816 -1.11318,-1.73813 -1.11318,-2.9099c0,-2.16127 0.77467,-3.79524 2.32402,-4.90191c1.54934,-1.10667 3.44371,-1.66001 5.6831,-1.66001c2.03107,0 3.80175,0.40361 5.31203,1.21083z" data-paper-data="{&quot;elementType&quot;:&quot;letter&quot;,&quot;baseline&quot;:51,&quot;baselineProportion&quot;:0.9770114942528735,&quot;fontSize&quot;:100}"></path></g></g></g></g><g clip-path="url(#clip-1)" data-paper-data="{&quot;elementType&quot;:&quot;emblem&quot;}"><path d="M64.40436,303.85977h47.17949v0l-0.83504,2.50511v0v-0.20876l-0.41752,1.46131h-43.00431v0h-0.20876c-5.21897,0 -9.39415,4.17518 -9.39415,9.39415c0,5.21897 4.17518,9.39415 9.39415,9.39415c5.21897,0 9.39415,-4.17518 9.39415,-9.39415c0,-1.25255 -0.20876,-2.29635 -0.62628,-3.34014h32.35761c-0.41752,1.04379 -0.62628,2.08759 -0.62628,3.34014c0,5.21897 4.17518,9.39415 9.39415,9.39415c5.21897,0 9.39415,-4.17518 9.39415,-9.39415c0,-5.01021 -4.17518,-9.39415 -9.39415,-9.39415h-0.20876l16.7007,-48.6408h6.05401c1.04379,1.46131 2.71386,2.71386 4.80145,2.71386c0.83504,0 1.67007,-0.20876 2.50511,-0.62628c2.92262,2.08759 6.47152,2.92262 10.22918,2.29635l0.41752,2.29635l13.1518,-2.71386v39.0379c-0.20876,0 -0.20876,0 -0.20876,0c-7.0978,0 -13.1518,6.05401 -13.36056,13.36056v8.14159h9.39415h27.13864h19.62333v0v0v-46.55321c0.62628,0.41752 1.46131,0.62628 2.29635,0.62628h13.56932c2.92262,0 5.21897,-2.29635 5.21897,-5.21897v-58.24371c0,-2.92262 -2.29635,-5.21897 -5.21897,-5.21897h-10.02042c0.83504,-4.80145 0.41752,-10.02042 -1.25255,-15.03063c-2.71386,-7.51532 -8.35035,-13.77808 -15.65691,-17.32698c-4.38393,-2.08759 -8.97663,-3.13138 -13.77808,-3.13138c-11.48173,0 -21.91967,6.47152 -26.92989,16.7007c-3.5489,7.0978 -3.96642,15.23939 -1.25255,22.96347c2.50511,7.0978 7.30656,12.73429 13.77808,16.49195c-0.62628,0.83504 -1.04379,1.67007 -1.46131,2.50511c-1.25255,1.46131 -1.67007,9.18539 -1.67007,11.69049l-17.11822,3.34014l0.41752,1.87883l-7.72408,1.67007c-0.62628,-0.20876 -1.25255,-0.41752 -2.08759,-0.41752c-2.08759,0 -3.75766,0.83504 -4.80145,2.71386h-8.14159c-0.20876,0 -0.20876,0 -0.41752,0c-1.25255,0.20876 -2.08759,1.04379 -2.50511,2.08759l-3.34014,9.60291v0h-71.60427l0.62628,1.87883l10.02042,36.11527l0.20876,1.04379zM174.83777,233.2993v0c0.41752,-0.83504 1.04379,-1.67007 1.46131,-2.50511c4.17518,1.87883 8.55911,2.92262 13.1518,2.92262v0c6.05401,0 11.69049,-1.67007 16.49195,-4.80145c2.71386,3.5489 4.38393,7.93283 4.38393,12.52553v73.06558h-16.90946c-0.62628,-6.26276 -5.42773,-11.48173 -11.48173,-12.31677v-22.75471h-2.29635v22.54595c-1.46131,0 -2.92262,0.20876 -4.38393,0.83504c-0.62628,-0.20876 -1.25255,-0.41752 -1.87883,-0.62628v-39.87293l12.73429,-2.50511c5.01021,-1.04379 8.35035,-6.05401 7.30656,-11.06422c-1.04379,-5.01021 -6.05401,-8.35035 -11.06422,-7.30656l-8.55911,1.67007c0.20876,-3.34014 0.62628,-8.55911 1.04379,-9.81166zM178.80418,179.23076c3.13138,1.46131 13.36056,7.0978 16.07443,14.1956v0.20876c0.20876,0.41752 0.20876,0.62628 0.20876,0.62628c0.41752,1.67007 0.62628,5.01021 -1.87883,10.43794c-4.17518,8.35035 -12.73429,13.77808 -21.91967,13.77808c-2.08759,0 -3.96642,-0.20876 -5.84525,-0.62628c-1.04379,-1.67007 -2.08759,-3.5489 -2.71386,-5.63649c-2.50511,-6.88904 -2.08759,-14.40436 1.04379,-20.87588c2.92262,-5.84525 7.72408,-10.22918 13.36056,-12.73429c1.04379,0.41752 1.67007,0.83504 1.67007,0.62628zM213.87566,215.97231c-1.67007,3.75766 -4.38393,6.88904 -7.51532,9.39415c-0.41752,0.41752 -0.62628,0.62628 -1.04379,0.83504c0,0.20876 -0.20876,0.20876 -0.20876,0.20876c-0.20876,0.20876 -0.62628,0.41752 -1.04379,0.62628c-4.38393,2.71386 -9.39415,4.17518 -14.61312,4.17518c-4.38393,0 -8.55911,-1.04379 -12.52553,-2.92262c-0.41752,-0.20876 -1.04379,-0.62628 -1.46131,-0.83504c-3.5489,-2.08759 -6.47152,-4.59269 -8.76787,-7.72408c1.46131,0.20876 3.13138,0.41752 4.59269,0.41752c9.81166,0 18.78829,-5.84525 23.17223,-14.61312c2.71386,-5.42773 2.50511,-9.39415 2.08759,-11.48173c0,0 0,-0.20876 -0.20876,-0.62628v-0.20876c-1.04379,-2.50511 -4.38393,-8.97663 -16.90946,-15.03063c0,0 -0.20876,0 -0.41752,-0.20876c2.92262,-1.04379 6.05401,-1.67007 9.39415,-1.67007c4.38393,0 8.55911,1.04379 12.52553,2.92262c6.68028,3.34014 11.69049,8.97663 14.1956,15.86567c2.50511,6.88904 2.08759,14.1956 -1.25255,20.87588zM213.04063,222.44384c1.25255,-1.67007 2.50511,-3.34014 3.34014,-5.21897c0.83504,-1.87883 1.67007,-3.5489 2.08759,-5.42773h10.6467c1.25255,0 2.29635,1.04379 2.29635,2.29635v58.24371c0,1.25255 -1.04379,2.29635 -2.29635,2.29635h-13.77808c-1.25255,0 -2.29635,-1.04379 -2.29635,-2.29635v-49.89335zM210.53552,225.1577v0l-0.20876,5.42773c-0.62628,-1.25255 -1.25255,-2.29635 -2.08759,-3.34014c0.83504,-0.62628 1.46131,-1.25255 2.29635,-2.08759zM169.41004,317.22034h14.40436v0h26.51237v0v3.5489h-40.91673zM170.45383,314.50647h-1.25255c0,-1.46131 0.41752,-2.71386 1.04379,-3.75766c0.62628,-1.46131 1.46131,-2.50511 2.71386,-3.5489c0.62628,-0.41752 1.25255,-0.83504 1.87883,-1.25255c1.04379,-0.41752 2.08759,-0.83504 3.34014,-1.04379c0.20876,-0.20876 0.62628,-0.20876 1.04379,-0.20876c0.20876,0 0.20876,0 0.41752,0c0.41752,0 0.62628,0 1.04379,0c0.41752,0 0.62628,0.20876 1.04379,0.20876c4.38393,0.83504 7.93283,4.80145 8.55911,9.39415h-6.68028h-1.67007h-1.04379v0h-1.46131h-6.26276v0l-2.71386,0.20876zM160.22465,317.22034h6.05401v3.5489h-6.05401zM171.70638,304.69481c-0.41752,0.20876 -0.83504,0.62628 -1.25255,1.04379c-2.29635,2.29635 -3.75766,5.21897 -4.17518,8.55911h-6.47152c0.83504,-5.42773 5.21897,-9.60291 10.6467,-9.60291c0,0 0.62628,0 1.25255,0zM157.09327,249.37372l16.7007,-3.34014v0v0l9.39415,-1.87883c3.5489,-0.62628 7.0978,1.67007 7.72408,5.21897c0.62628,3.5489 -1.67007,7.0978 -5.21897,7.72408l-26.09485,5.21897zM144.56774,254.38393l8.76787,-1.87883l1.87883,8.55911c-4.59269,0 -8.76787,-2.50511 -10.6467,-6.68028zM70.2496,317.01158c0,1.87883 -1.46131,3.34014 -3.34014,3.34014c-1.87883,0 -3.34014,-1.46131 -3.34014,-3.34014c0,-1.87883 1.46131,-3.34014 3.34014,-3.34014v0c0,0 0.20876,0 0.41752,0v0c1.87883,0.20876 3.13138,1.67007 2.92262,3.34014zM95.50942,300.72839l0.41752,-10.22918h10.43794l-1.87883,10.22918zM95.30066,290.08169h-10.43794l-0.62628,-10.6467h11.48173zM84.4452,290.08169h-10.22918l-1.67007,-10.6467h11.27298zM85.07148,290.49921h10.22918l-0.41752,10.22918h-9.39415zM75.88609,300.72839l-1.46131,-10.22918h10.02042l0.62628,10.22918zM63.98684,290.49921h9.81166l1.46131,10.22918h-8.55911zM60.85546,279.43499h11.27298l1.67007,10.6467h-10.02042zM70.04085,267.7445l1.67007,10.6467h-11.27298l-2.92262,-10.6467zM83.81893,278.3912h-11.27298l-1.67007,-10.6467h12.31677zM96.34445,267.7445l-0.41752,10.6467h-11.48173l-0.62628,-10.6467zM96.55321,279.43499h11.89925l-2.08759,10.6467h-10.43794zM110.33129,267.7445l-1.87883,10.6467h-12.10801l0.41752,-10.6467zM120.35172,278.3912h-11.27298l1.87883,-10.6467h13.1518zM116.59406,290.08169h-9.39415l1.87883,-10.6467h11.06422zM113.46268,317.01158c0,-1.87883 1.46131,-3.34014 3.34014,-3.34014c1.87883,0 3.34014,1.46131 3.34014,3.34014c0,1.87883 -1.46131,3.34014 -3.34014,3.34014c-1.87883,0 -3.34014,-1.46131 -3.34014,-3.34014zM105.11232,300.72839l1.87883,-10.22918h9.18539l-3.5489,10.22918zM227.65374,221.19128c0.83504,0 1.46131,0.62628 1.46131,1.46131c0,0.83504 -0.62628,1.46131 -1.46131,1.46131h-10.6467c-0.83504,0 -1.46131,-0.62628 -1.46131,-1.46131c0,-0.83504 0.62628,-1.46131 1.46131,-1.46131zM217.00704,225.57522h10.6467c0.83504,0 1.46131,0.62628 1.46131,1.46131c0,0.83504 -0.62628,1.46131 -1.46131,1.46131h-10.6467c-0.83504,0 -1.46131,-0.62628 -1.46131,-1.46131c0,-0.83504 0.62628,-1.46131 1.46131,-1.46131zM217.00704,229.7504h10.6467c0.83504,0 1.46131,0.62628 1.46131,1.46131c0,0.83504 -0.62628,1.46131 -1.46131,1.46131h-10.6467c-0.83504,0 -1.46131,-0.62628 -1.46131,-1.46131c0,-0.62628 0.62628,-1.25255 1.46131,-1.46131z"></path></g></g></svg>